<svg xmlns="http://www.w3.org/2000/svg" viewBox="0 0 69 69"><defs><style>.cls-1,.cls-2,.cls-6{fill:none;stroke-miterlimit:10;}.cls-1,.cls-2{stroke:#0095ff;}.cls-2{stroke-dasharray:2 4;opacity:0.74;}.cls-3{fill:#0657ca;}.cls-4{fill:#00eaff;}.cls-5{fill:#0e2b71;}.cls-6{stroke:#0d1d58;}</style></defs><title>资源 199mdpi</title><g id="图层_2" data-name="图层 2"><g id="图层_1-2" data-name="图层 1"><circle class="cls-1" cx="34.5" cy="34.5" r="22.45"/><circle class="cls-2" cx="34.5" cy="34.5" r="25.74"/><path class="cls-3" d="M34.59,69l0-5.48a28.83,28.83,0,0,0,7.42-1l1.41,5.29A34.81,34.81,0,0,1,34.59,69Z"/><path class="cls-4" d="M44.55,67.51,43,62.27a28.47,28.47,0,0,0,5.52-2.33l2.64,4.8A34.06,34.06,0,0,1,44.55,67.51Z"/><path class="cls-5" d="M57,60.68,53.4,56.53a29,29,0,0,0,10.12-22v-.29L69,34.16v.34A34.49,34.49,0,0,1,57,60.68Z"/><path class="cls-3" d="M8.37,57A35.09,35.09,0,0,1,4.3,51.19l4.79-2.65a29.21,29.21,0,0,0,3.43,4.91Z"/><path class="cls-3" d="M1.51,44.63l-.33-1.14,5.29-1.43c.09.32.18.64.28,1Z"/><path class="cls-3" d="M0,34.67V34.5A34.48,34.48,0,0,1,11.91,8.43l3.58,4.13a29.06,29.06,0,0,0-10,21.94v.14Z"/><path class="cls-3" d="M20.4,9.12,17.74,4.34a34.08,34.08,0,0,1,6.55-2.8l1.62,5.23A29.09,29.09,0,0,0,20.4,9.12Z"/><path class="cls-3" d="M26.87,6.49,25.43,1.2A34.85,34.85,0,0,1,34.24,0l0,5.48A28.85,28.85,0,0,0,26.87,6.49Z"/><path class="cls-6" d="M34.5,66.53a34.55,34.55,0,0,1-23.34-9"/><path class="cls-6" d="M34.5,3h.55A34.79,34.79,0,0,1,67.7,27.41"/><path class="cls-3" d="M59.84,20.34a29.24,29.24,0,0,0-3.45-4.9l4.13-3.6a34.69,34.69,0,0,1,4.1,5.82Z"/><path class="cls-4" d="M62.49,26.8c-.09-.32-.18-.64-.28-1l5.23-1.63q.18.55.33,1.14Z"/><path class="cls-5" d="M29.46,68.63a34.16,34.16,0,0,1-6.91-1.75l1.89-5.14a28.19,28.19,0,0,0,5.8,1.47Z"/><path class="cls-5" d="M21.44,66.45a34.29,34.29,0,0,1-7.74-4.39L17,57.69a29.11,29.11,0,0,0,6.51,3.69Z"/><path class="cls-5" d="M52,11.37a29.2,29.2,0,0,0-6.5-3.73l2.09-5.06A34.49,34.49,0,0,1,55.3,7Z"/><path class="cls-4" d="M44.56,7.28a28.92,28.92,0,0,0-5.8-1.5L39.57.37a34.13,34.13,0,0,1,6.9,1.78Z"/></g></g></svg>