<svg xmlns="http://www.w3.org/2000/svg" xmlns:xlink="http://www.w3.org/1999/xlink" viewBox="0 0 57.43 55.32"><defs><style>.cls-1{fill:url(#未命名的渐变_12);}.cls-2{fill:url(#未命名的渐变_12-2);}</style><linearGradient id="未命名的渐变_12" y1="27.66" x2="57.43" y2="27.66" gradientUnits="userSpaceOnUse"><stop offset="0" stop-color="#0095ff"/><stop offset="1" stop-color="#00ffea"/></linearGradient><linearGradient id="未命名的渐变_12-2" x1="8.67" y1="28.66" x2="24.26" y2="28.66" xlink:href="#未命名的渐变_12"/></defs><title>资源 202mdpi</title><g id="图层_2" data-name="图层 2"><g id="图层_1-2" data-name="图层 1"><path class="cls-1" d="M57.07,24.07l-20.49-5h-.12a.47.47,0,0,0-.48.48V50.42H32.71V.49A.48.48,0,0,0,32.22,0l-.11,0L.37,7.71A.47.47,0,0,0,0,8.18V54.83a.48.48,0,0,0,.49.49H57a.48.48,0,0,0,.48-.48V24.53a.46.46,0,0,0-.36-.46ZM27.82,50.42H4.89V11.65L27.82,6.09Zm24.73,0H40.87V25.18L52.54,28V50.42Z"/><path class="cls-2" d="M8.67,20H24.26v4.89H8.67Zm0,12.5H24.26v4.89H8.67Z"/></g></g></svg>