<svg xmlns="http://www.w3.org/2000/svg" viewBox="0 0 16 16"><defs><style>.cls-1{fill:#00b2e9;}</style></defs><title>塔式起重机mdpi</title><g id="图层_2" data-name="图层 2"><g id="图层_1-2" data-name="图层 1"><path class="cls-1" d="M15.52,4.07,6.39.1,5.92,0H4.58a1.2,1.2,0,0,0-.9.4L.2,4.26a.82.82,0,0,0-.2.5v2a.36.36,0,0,0,.12.28A.36.36,0,0,0,.4,7.2h2a.8.8,0,0,0,.8-.8V5.6H4v6a.4.4,0,0,1-.4.4H2.8a1.2,1.2,0,0,0-1.2,1.2v1.6A1.2,1.2,0,0,0,2.8,16H8.4a1.2,1.2,0,0,0,1.2-1.2V13.2A1.2,1.2,0,0,0,8.4,12H7.6a.4.4,0,0,1-.4-.4V6a.4.4,0,0,1,.4-.4h4A.4.4,0,0,1,12,6v.8a.4.4,0,0,1-.4.4h0a1.2,1.2,0,0,0-1.2,1.2v2.4A1.2,1.2,0,0,0,11.6,12H14a1.2,1.2,0,0,0,1.2-1.2V8.4A1.2,1.2,0,0,0,14,7.2h0a.4.4,0,0,1-.4-.4V6a.4.4,0,0,1,.4-.4h1.2A.8.8,0,0,0,16,5a.78.78,0,0,0-.46-.89ZM4.66,2.4l.76,1A.4.4,0,0,1,5.1,4H3.49a.4.4,0,0,1-.29-.67l.85-.94A.4.4,0,0,1,4.66,2.4ZM8.19,4a.39.39,0,0,1-.31-.15L6.19,1.75,11.35,4Z"/></g></g></svg>