<svg xmlns="http://www.w3.org/2000/svg" viewBox="0 0 14.54 16"><defs><style>.cls-1{fill:#cca331;}</style></defs><title>安装mdpi</title><g id="图层_2" data-name="图层 2"><g id="图层_1-2" data-name="图层 1"><path class="cls-1" d="M13.63,3.28,8.18.24a1.85,1.85,0,0,0-1.82,0l-5.45,3A1.75,1.75,0,0,0,0,4.81V11.2a1.75,1.75,0,0,0,.91,1.53l5.45,3a1.85,1.85,0,0,0,1.82,0l5.45-3a1.75,1.75,0,0,0,.91-1.53V4.8a1.75,1.75,0,0,0-.91-1.52ZM10.92,8.36A3,3,0,0,1,7.82,9l-3,3a.29.29,0,0,1-.18.07A.28.28,0,0,1,4.51,12L3.13,10.61a.23.23,0,0,1-.08-.17.21.21,0,0,1,.08-.17l3-3A2.93,2.93,0,0,1,9.45,3.41a.24.24,0,0,1,.18.17.23.23,0,0,1-.06.24L8,5.41a.29.29,0,0,0-.07.18A.26.26,0,0,0,8,5.76L9.36,7.15a.28.28,0,0,0,.17.07.29.29,0,0,0,.18-.07l1.59-1.6a.28.28,0,0,1,.25-.06.27.27,0,0,1,.17.19,3,3,0,0,1-.8,2.68Z"/></g></g></svg>