<svg xmlns="http://www.w3.org/2000/svg" viewBox="0 0 15.35 16"><defs><style>.cls-1{fill:#cca331;}</style></defs><title>拆卸过程mdpi</title><g id="图层_2" data-name="图层 2"><g id="图层_1-2" data-name="图层 1"><path class="cls-1" d="M2.23,6.21A2.2,2.2,0,0,0,3.8,2.44,2.16,2.16,0,0,0,2.23,1.8a2.16,2.16,0,0,0-1.57.64A2.18,2.18,0,0,0,0,4,2.22,2.22,0,0,0,2.23,6.21Zm0-3.68A1.47,1.47,0,1,1,.74,4,1.47,1.47,0,0,1,2.23,2.53Z"/><path class="cls-1" d="M1.49,4a.74.74,0,0,0,.37.64.75.75,0,0,0,.74,0A.74.74,0,0,0,3,4a.72.72,0,0,0-.37-.63.75.75,0,0,0-.74,0A.72.72,0,0,0,1.49,4Zm9.41,9.06H8.42l-4-6.85a2.74,2.74,0,0,1-2.73,1A4,4,0,0,1,.5,6.45l4,6.61H2a1,1,0,0,0-.69.29A.94.94,0,0,0,1,14v1a1,1,0,0,0,1,1H10.9a1,1,0,0,0,1-1V14a1,1,0,0,0-1-1Zm4.36-8.31a.49.49,0,0,0-.68-.13L12.22,6.21,10.65,4.36V3l1.51-1.77,2.37,1.59a.5.5,0,0,0,.69-.13.46.46,0,0,0,.07-.36A.49.49,0,0,0,15.08,2L12.22.08a.51.51,0,0,0-.69.13.54.54,0,0,0-.08.33L10,2.29H9.07a.65.65,0,0,0-.65.65V2.78H5.2v0A2.81,2.81,0,0,1,5.45,4,2.81,2.81,0,0,1,5.2,5.2v0H8.42V5.06a.66.66,0,0,0,.65.66H10a.59.59,0,0,0,.4-.15l1.13,1.32a.48.48,0,0,0,.76.45l2.85-1.91a.54.54,0,0,0,.21-.32.47.47,0,0,0-.08-.36Z"/></g></g></svg>