<svg xmlns="http://www.w3.org/2000/svg" viewBox="0 0 26.78 30.79"><defs><style>.cls-1{fill:#ff6169;}.cls-2{fill:#dfca38;}.cls-3{fill:#cb9200;}</style></defs><title>资源 196mdpi</title><g id="图层_2" data-name="图层 2"><g id="图层_1-2" data-name="图层 1"><path class="cls-1" d="M20.61,20.87,18.55,22a1.4,1.4,0,0,1-.3.15,12.42,12.42,0,0,1-9.72,0,2.1,2.1,0,0,1-.3-.15L6.38,21A2,2,0,0,1,6,20.72l0,0a2.5,2.5,0,0,0-3.87.88l-2,4.31a1.24,1.24,0,0,0,.2,1.33,1.11,1.11,0,0,0,1.21.28l3.89-1.39a.22.22,0,0,1,.31.13l1.53,3.85a1.11,1.11,0,0,0,1,.72h0a1.22,1.22,0,0,0,1.1-.73l3-6.48c.33,0,.65,0,1,0s.66,0,1,0l3,6.48a1.2,1.2,0,0,0,1.09.73h0a1.11,1.11,0,0,0,1-.72l1.53-3.85a.22.22,0,0,1,.31-.13l3.89,1.39a1.1,1.1,0,0,0,1.21-.29,1.18,1.18,0,0,0,.2-1.32l-3.31-7.28c.6-.81.53-.66,0-.07a19.42,19.42,0,0,1-2.71,2.35"/><path class="cls-2" d="M5.86,24l2.05,1.18a2.11,2.11,0,0,0,.3.16,13,13,0,0,0,10.35,0l.31-.16,2-1.18a1.67,1.67,0,0,0,.28-.18,13.58,13.58,0,0,0,5.23-8.26A13.41,13.41,0,0,0,13.39,0,13.33,13.33,0,0,0,.2,13.44a14.38,14.38,0,0,0,.17,2.19A13.69,13.69,0,0,0,5.58,23.8,1.67,1.67,0,0,0,5.86,24Z"/><path class="cls-3" d="M7.43,21.8,9,22.7a1.68,1.68,0,0,0,.3.15,10.38,10.38,0,0,0,8.18,0,2.1,2.1,0,0,0,.3-.15l1.56-.9a2.9,2.9,0,0,0,.29-.19,10.81,10.81,0,0,0,4.13-6.55,10.26,10.26,0,0,0,.13-1.67,10.61,10.61,0,0,0-10.5-10.7,10.61,10.61,0,0,0-10.5,10.7A11.27,11.27,0,0,0,3,15.14a10.85,10.85,0,0,0,4.11,6.47Z"/></g></g></svg>