<svg xmlns="http://www.w3.org/2000/svg" viewBox="0 0 14.67 16"><defs><style>.cls-1{fill:#00b2e9;}</style></defs><title>施工升降机mdpi</title><g id="图层_2" data-name="图层 2"><g id="图层_1-2" data-name="图层 1"><path class="cls-1" d="M13.73,2.67h-4a.4.4,0,0,1-.4-.4V.93A.93.93,0,0,0,8.4,0H5.87a.54.54,0,0,0-.54.53v.8H.93A.94.94,0,0,0,0,2.27V12.8a.55.55,0,0,0,.16.38.51.51,0,0,0,.37.15h4.4a.4.4,0,0,1,.4.4v1.74a.52.52,0,0,0,.16.37.53.53,0,0,0,.38.16H8.8a.55.55,0,0,0,.38-.16.51.51,0,0,0,.15-.37v-.8h4.8a.55.55,0,0,0,.54-.54V3.6A.93.93,0,0,0,13.73,2.67ZM4.39,8.26H2.28l0,0a.06.06,0,0,1,0-.06l1-1.7,0,0h0s0,0,0,0l1.06,1.7a.06.06,0,0,1,0,.06ZM8,14.67H6.67V1.33H8Zm4.44-6.85-1.06,1.7a.06.06,0,0,1-.1,0l-1-1.7a0,0,0,0,1,0-.05.05.05,0,0,1,0,0h2.11a.05.05,0,0,1,0,0A0,0,0,0,1,12.44,7.82Z"/></g></g></svg>