<svg xmlns="http://www.w3.org/2000/svg" viewBox="0 0 20.01 15.99"><defs><style>.cls-1{fill:#00b2e9;}</style></defs><title>桥式起重机mdpi</title><g id="图层_2" data-name="图层 2"><g id="图层_1-2" data-name="图层 1"><path class="cls-1" d="M20,.84A.85.85,0,0,0,19.18,0H.83A.77.77,0,0,0,0,.84a.8.8,0,0,0,.83.82H2.2a.41.41,0,0,1,.4.47L.39,15.49A.4.4,0,0,0,.77,16l.79,0A.41.41,0,0,0,2,15.65L4.28,2a.4.4,0,0,1,.39-.34H9.24c0,.07-.06.13-.06.19v1.4a1.27,1.27,0,0,0,1,1.29,1.25,1.25,0,0,1,1,1.27A1.3,1.3,0,0,1,10.51,7l-.19-.25a.42.42,0,0,0-.63,0L9.49,7a1.32,1.32,0,0,1-.7-1.14.83.83,0,1,0-1.65,0A2.82,2.82,0,0,0,8.14,8a.4.4,0,0,1,.08.56l-1,1.31a.4.4,0,0,1-.31.15H4.78a.5.5,0,0,0-.51.51v2.23a.5.5,0,0,0,.51.51H15.16a.5.5,0,0,0,.51-.51V10.52a.5.5,0,0,0-.51-.51h-2a.37.37,0,0,1-.31-.15l-1-1.25a.4.4,0,0,1,.07-.56,2.87,2.87,0,0,0,1-2.24A2.89,2.89,0,0,0,10.83,3V1.85a.25.25,0,0,0-.06-.19h4.56a.41.41,0,0,1,.4.34L18,15.65a.42.42,0,0,0,.42.34l.78,0a.4.4,0,0,0,.38-.46L17.41,2.13a.4.4,0,0,1,.39-.47h1.32A.9.9,0,0,0,20,.84Zm-5.29,11.4H5.22V11h9.5ZM12,10H8l1.15-1.4a3.35,3.35,0,0,0,.82.13,3.36,3.36,0,0,0,.83-.13Z"/></g></g></svg>