<svg xmlns="http://www.w3.org/2000/svg" viewBox="0 0 14.97 15.96"><defs><style>.cls-1{fill:#cca331;}</style></defs><title>检测过程mdpi</title><g id="图层_2" data-name="图层 2"><g id="图层_1-2" data-name="图层 1"><path class="cls-1" d="M.87,1.68c1-.2,2-.43,3-.69S5.69.46,6.59.15a2.78,2.78,0,0,1,1.78,0Q9.74.61,11.13,1c1,.27,2,.5,2.95.7A1.07,1.07,0,0,1,15,2.73l0,4.45v.05q0,5-7.48,8.73Q0,12.52,0,7.23V2.74A1.09,1.09,0,0,1,.87,1.68ZM6.19,5.91,8,11.59a.53.53,0,0,0,.5.38A.53.53,0,0,0,9,11.62l1.18-3.16h2.36a.68.68,0,0,0,0-1.35H9.64a.54.54,0,0,0-.51.35L8.57,9,6.72,3.12a.56.56,0,0,0-.51-.38.54.54,0,0,0-.51.37L4.43,7h-2a.67.67,0,0,0-.58.34.69.69,0,0,0,0,.68.66.66,0,0,0,.58.33h3l.78-2.39Z"/></g></g></svg>