<svg xmlns="http://www.w3.org/2000/svg" viewBox="0 0 12.79 16"><defs><style>.cls-1{fill:#cca331;}</style></defs><title>维保过程mdpi</title><g id="图层_2" data-name="图层 2"><g id="图层_1-2" data-name="图层 1"><path class="cls-1" d="M2.29,2A1,1,0,0,1,1.4,1.5a1,1,0,0,1,0-1A1,1,0,0,1,2.29,0H6.1a1,1,0,0,1,0,2Z"/><path class="cls-1" d="M12,5.77l-.13-.1L8.47,3.21a2.2,2.2,0,0,0-1.28-.42H2.4A2.32,2.32,0,0,0,0,5v8.79A2.32,2.32,0,0,0,2.4,16h8a2.32,2.32,0,0,0,2.41-2.21V7.27A1.87,1.87,0,0,0,12,5.77Zm-2,3.6A2.93,2.93,0,0,1,9.12,11a2.8,2.8,0,0,1-2,.75,3.88,3.88,0,0,1-1.21-.2h0L4.2,13.16a1.46,1.46,0,0,1-1,.49,1,1,0,0,1-.73-.32,1,1,0,0,1-.31-.86,1.56,1.56,0,0,1,.48-.87L4.34,9.88v0a3.81,3.81,0,0,1-.12-1.64,2.68,2.68,0,0,1,.71-1.47A2.94,2.94,0,0,1,7,5.87a3.07,3.07,0,0,1,1.2.25h0a.05.05,0,0,1,0,0s0,0,0,0h0c-.08.07-.49.49-1.21,1.21A.17.17,0,0,0,7,7.6l.15,1a.15.15,0,0,0,.12.13l1,.14h0a.25.25,0,0,0,.14-.06L9.64,7.63h0s0,0,0,0a.05.05,0,0,1,.05,0h0A3,3,0,0,1,10,9.37Z"/></g></g></svg>