<svg xmlns="http://www.w3.org/2000/svg" viewBox="0 0 16.8 16"><defs><style>.cls-1{fill:#00b2e9;}</style></defs><title>门式起重机mdpi</title><g id="图层_2" data-name="图层 2"><g id="图层_1-2" data-name="图层 1"><path class="cls-1" d="M16.27.12.55,0a.53.53,0,1,0,0,1.06C2.53,1.08,3.3,3,4.62,3L8.06,3V4.15H6.79V5.59a.43.43,0,0,0,.2.35l.86.5A.41.41,0,0,1,8,6.79v1c0,.06,0,.11.11.11h.22a1.19,1.19,0,0,1,1.2,1.22,1.2,1.2,0,0,1-.77,1.11L8.57,10a.26.26,0,0,0-.39,0L8,10.26a1.2,1.2,0,0,1-.72-.74.15.15,0,0,0-.14-.11H6.53a.1.1,0,0,0-.12.13A2,2,0,0,0,7,10.62a.4.4,0,0,1,0,.57l-1.22,1.2a.39.39,0,0,1-.28.12l-4.07,0v1L3,13.5v1.4H1.44v1L15.11,16V15H13.55v-1.4h1.57v-1l-4,0a.39.39,0,0,1-.28-.12L9.66,11.21a.41.41,0,0,1,0-.57,1.92,1.92,0,0,0,.67-1.46A2,2,0,0,0,8.87,7.24.3.3,0,0,1,8.65,7V6.59L9.72,6a.42.42,0,0,0,.2-.35V4.19H8.67V3l3.47,0c1.32,0,2.12-1.86,4.08-1.85.67,0,.82-1.08,0-1.09Zm-6.1,12.4-3.75,0,1.44-1.42a1.06,1.06,0,0,1,.14,0,2.07,2.07,0,0,0,.28,0,1.53,1.53,0,0,0,.28,0,1.36,1.36,0,0,1,.2,0Z"/></g></g></svg>