<svg xmlns="http://www.w3.org/2000/svg" viewBox="0 0 16 16"><defs><style>.cls-1{fill:#cca331;}</style></defs><title>顶升过程mdpi</title><g id="图层_2" data-name="图层 2"><g id="图层_1-2" data-name="图层 1"><path class="cls-1" d="M14.86,0a1.18,1.18,0,0,1,.81.33,1.18,1.18,0,0,1,.33.81v9.15a1.14,1.14,0,0,1-1.14,1.14H5.71a1.16,1.16,0,0,1-1.14-1.14V9.14H3.43v4.57H9.14a1.15,1.15,0,1,1,0,2.29h-8a1.15,1.15,0,0,1,0-2.29V8A1.14,1.14,0,0,1,2.29,6.86H4.57V1.14A1.14,1.14,0,0,1,5.71,0ZM12.57,6.86a1.15,1.15,0,0,0,0-2.29H11.43V3.43a1.15,1.15,0,0,0-2.29,0V4.57H8A1.15,1.15,0,0,0,8,6.86H9.14V8a1.15,1.15,0,0,0,2.29,0V6.86Z"/></g></g></svg>